<?xml version="1.0" encoding="utf-8"?>
<svg xmlns="http://www.w3.org/2000/svg" xmlns:xlink="http://www.w3.org/1999/xlink" width="800" height="500" viewBox="0 0 3200 2000">
<defs>
  <clipPath id="clip670">
    <rect x="0" y="0" width="3200" height="2000"/>
  </clipPath>
</defs>
<path clip-path="url(#clip670)" d="M0 2000 L3200 2000 L3200 0 L0 0  Z" fill="#ffffff" fill-rule="evenodd" fill-opacity="1"/>
<defs>
  <clipPath id="clip671">
    <rect x="180" y="47" width="2973" height="1778"/>
  </clipPath>
</defs>
<path clip-path="url(#clip670)" d="M180.475 1824.31 L3152.76 1824.31 L3152.76 47.2441 L180.475 47.2441  Z" fill="#ffffff" fill-rule="evenodd" fill-opacity="1"/>
<polyline clip-path="url(#clip671)" style="stroke:#000000; stroke-linecap:round; stroke-linejoin:round; stroke-width:2; stroke-opacity:0.1; fill:none" points="180.475,1824.31 180.475,47.2441 "/>
<polyline clip-path="url(#clip671)" style="stroke:#000000; stroke-linecap:round; stroke-linejoin:round; stroke-width:2; stroke-opacity:0.1; fill:none" points="774.931,1824.31 774.931,47.2441 "/>
<polyline clip-path="url(#clip671)" style="stroke:#000000; stroke-linecap:round; stroke-linejoin:round; stroke-width:2; stroke-opacity:0.1; fill:none" points="1369.39,1824.31 1369.39,47.2441 "/>
<polyline clip-path="url(#clip671)" style="stroke:#000000; stroke-linecap:round; stroke-linejoin:round; stroke-width:2; stroke-opacity:0.1; fill:none" points="1963.84,1824.31 1963.84,47.2441 "/>
<polyline clip-path="url(#clip671)" style="stroke:#000000; stroke-linecap:round; stroke-linejoin:round; stroke-width:2; stroke-opacity:0.1; fill:none" points="2558.3,1824.31 2558.3,47.2441 "/>
<polyline clip-path="url(#clip671)" style="stroke:#000000; stroke-linecap:round; stroke-linejoin:round; stroke-width:2; stroke-opacity:0.1; fill:none" points="3152.76,1824.31 3152.76,47.2441 "/>
<polyline clip-path="url(#clip671)" style="stroke:#000000; stroke-linecap:round; stroke-linejoin:round; stroke-width:2; stroke-opacity:0.1; fill:none" points="180.475,1824.31 3152.76,1824.31 "/>
<polyline clip-path="url(#clip671)" style="stroke:#000000; stroke-linecap:round; stroke-linejoin:round; stroke-width:2; stroke-opacity:0.1; fill:none" points="180.475,1231.95 3152.76,1231.95 "/>
<polyline clip-path="url(#clip671)" style="stroke:#000000; stroke-linecap:round; stroke-linejoin:round; stroke-width:2; stroke-opacity:0.1; fill:none" points="180.475,639.599 3152.76,639.599 "/>
<polyline clip-path="url(#clip671)" style="stroke:#000000; stroke-linecap:round; stroke-linejoin:round; stroke-width:2; stroke-opacity:0.1; fill:none" points="180.475,47.2441 3152.76,47.2441 "/>
<polyline clip-path="url(#clip670)" style="stroke:#000000; stroke-linecap:round; stroke-linejoin:round; stroke-width:4; stroke-opacity:1; fill:none" points="180.475,1824.31 3152.76,1824.31 "/>
<polyline clip-path="url(#clip670)" style="stroke:#000000; stroke-linecap:round; stroke-linejoin:round; stroke-width:4; stroke-opacity:1; fill:none" points="180.475,1824.31 180.475,1805.41 "/>
<polyline clip-path="url(#clip670)" style="stroke:#000000; stroke-linecap:round; stroke-linejoin:round; stroke-width:4; stroke-opacity:1; fill:none" points="774.931,1824.31 774.931,1805.41 "/>
<polyline clip-path="url(#clip670)" style="stroke:#000000; stroke-linecap:round; stroke-linejoin:round; stroke-width:4; stroke-opacity:1; fill:none" points="1369.39,1824.31 1369.39,1805.41 "/>
<polyline clip-path="url(#clip670)" style="stroke:#000000; stroke-linecap:round; stroke-linejoin:round; stroke-width:4; stroke-opacity:1; fill:none" points="1963.84,1824.31 1963.84,1805.41 "/>
<polyline clip-path="url(#clip670)" style="stroke:#000000; stroke-linecap:round; stroke-linejoin:round; stroke-width:4; stroke-opacity:1; fill:none" points="2558.3,1824.31 2558.3,1805.41 "/>
<polyline clip-path="url(#clip670)" style="stroke:#000000; stroke-linecap:round; stroke-linejoin:round; stroke-width:4; stroke-opacity:1; fill:none" points="3152.76,1824.31 3152.76,1805.41 "/>
<path clip-path="url(#clip670)" d="M180.475 1861.63 Q176.864 1861.63 175.035 1865.19 Q173.23 1868.73 173.23 1875.86 Q173.23 1882.97 175.035 1886.54 Q176.864 1890.08 180.475 1890.08 Q184.109 1890.08 185.915 1886.54 Q187.744 1882.97 187.744 1875.86 Q187.744 1868.73 185.915 1865.19 Q184.109 1861.63 180.475 1861.63 M180.475 1857.92 Q186.285 1857.92 189.341 1862.53 Q192.42 1867.11 192.42 1875.86 Q192.42 1884.59 189.341 1889.2 Q186.285 1893.78 180.475 1893.78 Q174.665 1893.78 171.586 1889.2 Q168.531 1884.59 168.531 1875.86 Q168.531 1867.11 171.586 1862.53 Q174.665 1857.92 180.475 1857.92 Z" fill="#000000" fill-rule="nonzero" fill-opacity="1" /><path clip-path="url(#clip670)" d="M769.584 1889.17 L785.904 1889.17 L785.904 1893.11 L763.959 1893.11 L763.959 1889.17 Q766.621 1886.42 771.205 1881.79 Q775.811 1877.14 776.992 1875.8 Q779.237 1873.27 780.117 1871.54 Q781.019 1869.78 781.019 1868.09 Q781.019 1865.33 779.075 1863.6 Q777.154 1861.86 774.052 1861.86 Q771.853 1861.86 769.399 1862.62 Q766.968 1863.39 764.191 1864.94 L764.191 1860.22 Q767.015 1859.08 769.468 1858.5 Q771.922 1857.92 773.959 1857.92 Q779.329 1857.92 782.524 1860.61 Q785.718 1863.3 785.718 1867.79 Q785.718 1869.92 784.908 1871.84 Q784.121 1873.73 782.015 1876.33 Q781.436 1877 778.334 1880.22 Q775.232 1883.41 769.584 1889.17 Z" fill="#000000" fill-rule="nonzero" fill-opacity="1" /><path clip-path="url(#clip670)" d="M1372.4 1862.62 L1360.59 1881.07 L1372.4 1881.07 L1372.4 1862.62 M1371.17 1858.55 L1377.05 1858.55 L1377.05 1881.07 L1381.98 1881.07 L1381.98 1884.96 L1377.05 1884.96 L1377.05 1893.11 L1372.4 1893.11 L1372.4 1884.96 L1356.79 1884.96 L1356.79 1880.45 L1371.17 1858.55 Z" fill="#000000" fill-rule="nonzero" fill-opacity="1" /><path clip-path="url(#clip670)" d="M1964.25 1873.97 Q1961.1 1873.97 1959.25 1876.12 Q1957.42 1878.27 1957.42 1882.02 Q1957.42 1885.75 1959.25 1887.92 Q1961.1 1890.08 1964.25 1890.08 Q1967.4 1890.08 1969.23 1887.92 Q1971.08 1885.75 1971.08 1882.02 Q1971.08 1878.27 1969.23 1876.12 Q1967.4 1873.97 1964.25 1873.97 M1973.53 1859.31 L1973.53 1863.57 Q1971.77 1862.74 1969.97 1862.3 Q1968.18 1861.86 1966.42 1861.86 Q1961.8 1861.86 1959.34 1864.98 Q1956.91 1868.11 1956.56 1874.43 Q1957.93 1872.42 1959.99 1871.35 Q1962.05 1870.26 1964.53 1870.26 Q1969.73 1870.26 1972.74 1873.43 Q1975.78 1876.58 1975.78 1882.02 Q1975.78 1887.35 1972.63 1890.56 Q1969.48 1893.78 1964.25 1893.78 Q1958.25 1893.78 1955.08 1889.2 Q1951.91 1884.59 1951.91 1875.86 Q1951.91 1867.67 1955.8 1862.81 Q1959.69 1857.92 1966.24 1857.92 Q1968 1857.92 1969.78 1858.27 Q1971.59 1858.62 1973.53 1859.31 Z" fill="#000000" fill-rule="nonzero" fill-opacity="1" /><path clip-path="url(#clip670)" d="M2558.3 1876.7 Q2554.97 1876.7 2553.05 1878.48 Q2551.15 1880.26 2551.15 1883.39 Q2551.15 1886.51 2553.05 1888.3 Q2554.97 1890.08 2558.3 1890.08 Q2561.63 1890.08 2563.55 1888.3 Q2565.48 1886.49 2565.48 1883.39 Q2565.48 1880.26 2563.55 1878.48 Q2561.66 1876.7 2558.3 1876.7 M2553.62 1874.71 Q2550.61 1873.97 2548.92 1871.91 Q2547.26 1869.85 2547.26 1866.88 Q2547.26 1862.74 2550.2 1860.33 Q2553.16 1857.92 2558.3 1857.92 Q2563.46 1857.92 2566.4 1860.33 Q2569.34 1862.74 2569.34 1866.88 Q2569.34 1869.85 2567.65 1871.91 Q2565.98 1873.97 2563 1874.71 Q2566.38 1875.49 2568.25 1877.79 Q2570.15 1880.08 2570.15 1883.39 Q2570.15 1888.41 2567.07 1891.1 Q2564.02 1893.78 2558.3 1893.78 Q2552.58 1893.78 2549.5 1891.1 Q2546.45 1888.41 2546.45 1883.39 Q2546.45 1880.08 2548.35 1877.79 Q2550.24 1875.49 2553.62 1874.71 M2551.91 1867.32 Q2551.91 1870.01 2553.58 1871.51 Q2555.27 1873.02 2558.3 1873.02 Q2561.31 1873.02 2563 1871.51 Q2564.71 1870.01 2564.71 1867.32 Q2564.71 1864.64 2563 1863.13 Q2561.31 1861.63 2558.3 1861.63 Q2555.27 1861.63 2553.58 1863.13 Q2551.91 1864.64 2551.91 1867.32 Z" fill="#000000" fill-rule="nonzero" fill-opacity="1" /><path clip-path="url(#clip670)" d="M3127.44 1889.17 L3135.08 1889.17 L3135.08 1862.81 L3126.77 1864.48 L3126.77 1860.22 L3135.04 1858.55 L3139.71 1858.55 L3139.71 1889.17 L3147.35 1889.17 L3147.35 1893.11 L3127.44 1893.11 L3127.44 1889.17 Z" fill="#000000" fill-rule="nonzero" fill-opacity="1" /><path clip-path="url(#clip670)" d="M3166.8 1861.63 Q3163.18 1861.63 3161.36 1865.19 Q3159.55 1868.73 3159.55 1875.86 Q3159.55 1882.97 3161.36 1886.54 Q3163.18 1890.08 3166.8 1890.08 Q3170.43 1890.08 3172.23 1886.54 Q3174.06 1882.97 3174.06 1875.86 Q3174.06 1868.73 3172.23 1865.19 Q3170.43 1861.63 3166.8 1861.63 M3166.8 1857.92 Q3172.61 1857.92 3175.66 1862.53 Q3178.74 1867.11 3178.74 1875.86 Q3178.74 1884.59 3175.66 1889.2 Q3172.61 1893.78 3166.8 1893.78 Q3160.99 1893.78 3157.91 1889.2 Q3154.85 1884.59 3154.85 1875.86 Q3154.85 1867.11 3157.91 1862.53 Q3160.99 1857.92 3166.8 1857.92 Z" fill="#000000" fill-rule="nonzero" fill-opacity="1" /><path clip-path="url(#clip670)" d="M1649.27 1945.53 L1655.48 1945.53 L1666.62 1975.44 L1677.76 1945.53 L1683.96 1945.53 L1670.59 1981.17 L1662.64 1981.17 L1649.27 1945.53 Z" fill="#000000" fill-rule="nonzero" fill-opacity="1" /><polyline clip-path="url(#clip670)" style="stroke:#000000; stroke-linecap:round; stroke-linejoin:round; stroke-width:4; stroke-opacity:1; fill:none" points="180.475,1824.31 180.475,47.2441 "/>
<polyline clip-path="url(#clip670)" style="stroke:#000000; stroke-linecap:round; stroke-linejoin:round; stroke-width:4; stroke-opacity:1; fill:none" points="180.475,1824.31 199.373,1824.31 "/>
<polyline clip-path="url(#clip670)" style="stroke:#000000; stroke-linecap:round; stroke-linejoin:round; stroke-width:4; stroke-opacity:1; fill:none" points="180.475,1231.95 199.373,1231.95 "/>
<polyline clip-path="url(#clip670)" style="stroke:#000000; stroke-linecap:round; stroke-linejoin:round; stroke-width:4; stroke-opacity:1; fill:none" points="180.475,639.599 199.373,639.599 "/>
<polyline clip-path="url(#clip670)" style="stroke:#000000; stroke-linecap:round; stroke-linejoin:round; stroke-width:4; stroke-opacity:1; fill:none" points="180.475,47.2441 199.373,47.2441 "/>
<path clip-path="url(#clip670)" d="M116.156 1837.65 L132.475 1837.65 L132.475 1841.59 L110.531 1841.59 L110.531 1837.65 Q113.193 1834.9 117.776 1830.27 Q122.383 1825.62 123.563 1824.28 Q125.809 1821.75 126.688 1820.02 Q127.591 1818.26 127.591 1816.57 Q127.591 1813.81 125.647 1812.08 Q123.725 1810.34 120.623 1810.34 Q118.424 1810.34 115.971 1811.1 Q113.54 1811.87 110.762 1813.42 L110.762 1808.7 Q113.586 1807.56 116.04 1806.98 Q118.494 1806.4 120.531 1806.4 Q125.901 1806.4 129.096 1809.09 Q132.29 1811.78 132.29 1816.27 Q132.29 1818.4 131.48 1820.32 Q130.693 1822.21 128.586 1824.81 Q128.008 1825.48 124.906 1828.7 Q121.804 1831.89 116.156 1837.65 Z" fill="#000000" fill-rule="nonzero" fill-opacity="1" /><path clip-path="url(#clip670)" d="M125.346 1230.6 Q128.702 1231.32 130.577 1233.59 Q132.475 1235.86 132.475 1239.19 Q132.475 1244.3 128.957 1247.1 Q125.438 1249.91 118.957 1249.91 Q116.781 1249.91 114.466 1249.47 Q112.174 1249.05 109.721 1248.19 L109.721 1243.68 Q111.665 1244.81 113.98 1245.39 Q116.295 1245.97 118.818 1245.97 Q123.216 1245.97 125.508 1244.23 Q127.822 1242.5 127.822 1239.19 Q127.822 1236.13 125.67 1234.42 Q123.54 1232.68 119.721 1232.68 L115.693 1232.68 L115.693 1228.84 L119.906 1228.84 Q123.355 1228.84 125.184 1227.48 Q127.012 1226.09 127.012 1223.49 Q127.012 1220.83 125.114 1219.42 Q123.239 1217.98 119.721 1217.98 Q117.799 1217.98 115.6 1218.4 Q113.401 1218.82 110.762 1219.7 L110.762 1215.53 Q113.424 1214.79 115.739 1214.42 Q118.077 1214.05 120.137 1214.05 Q125.461 1214.05 128.563 1216.48 Q131.665 1218.89 131.665 1223.01 Q131.665 1225.88 130.022 1227.87 Q128.378 1229.84 125.346 1230.6 Z" fill="#000000" fill-rule="nonzero" fill-opacity="1" /><path clip-path="url(#clip670)" d="M122.892 626.393 L111.086 644.842 L122.892 644.842 L122.892 626.393 M121.665 622.319 L127.545 622.319 L127.545 644.842 L132.475 644.842 L132.475 648.731 L127.545 648.731 L127.545 656.879 L122.892 656.879 L122.892 648.731 L107.29 648.731 L107.29 644.217 L121.665 622.319 Z" fill="#000000" fill-rule="nonzero" fill-opacity="1" /><path clip-path="url(#clip670)" d="M111.573 29.9641 L129.929 29.9641 L129.929 33.8993 L115.855 33.8993 L115.855 42.3714 Q116.873 42.0242 117.892 41.8622 Q118.91 41.677 119.929 41.677 Q125.716 41.677 129.096 44.8483 Q132.475 48.0196 132.475 53.4362 Q132.475 59.0149 129.003 62.1167 Q125.531 65.1954 119.211 65.1954 Q117.035 65.1954 114.767 64.825 Q112.522 64.4547 110.114 63.7139 L110.114 59.0149 Q112.198 60.1491 114.42 60.7047 Q116.642 61.2602 119.119 61.2602 Q123.123 61.2602 125.461 59.1538 Q127.799 57.0473 127.799 53.4362 Q127.799 49.8251 125.461 47.7186 Q123.123 45.6122 119.119 45.6122 Q117.244 45.6122 115.369 46.0288 Q113.517 46.4455 111.573 47.3251 L111.573 29.9641 Z" fill="#000000" fill-rule="nonzero" fill-opacity="1" /><path clip-path="url(#clip670)" d="M22.7542 948.588 Q23.4544 946.519 25.7461 944.578 Q28.0377 942.604 32.0481 940.631 L45.0342 934.106 L45.0342 941.013 L32.8438 947.092 Q28.0695 949.447 26.51 951.675 Q24.9504 953.871 24.9504 957.691 L24.9504 964.693 L45.0342 964.693 L45.0342 971.123 L-2.48584 971.123 L-2.48584 956.609 Q-2.48584 948.461 0.919811 944.45 Q4.32546 940.44 11.2004 940.44 Q15.6882 940.44 18.6483 942.541 Q21.6084 944.609 22.7542 948.588 M2.79769 964.693 L19.6668 964.693 L19.6668 956.609 Q19.6668 951.962 17.5343 949.606 Q15.37 947.219 11.2004 947.219 Q7.03089 947.219 4.93021 949.606 Q2.79769 951.962 2.79769 956.609 L2.79769 964.693 Z" fill="#000000" fill-rule="nonzero" fill-opacity="1" /><path clip-path="url(#clip670)" d="M10.7548 900.431 L16.2293 900.431 Q14.8607 902.914 14.1923 905.428 Q13.4921 907.911 13.4921 910.457 Q13.4921 916.155 17.1205 919.306 Q20.7172 922.457 27.242 922.457 Q33.7669 922.457 37.3953 919.306 Q40.9919 916.155 40.9919 910.457 Q40.9919 907.911 40.3235 905.428 Q39.6233 902.914 38.2547 900.431 L43.6655 900.431 Q44.8114 902.882 45.3843 905.524 Q45.9572 908.134 45.9572 911.094 Q45.9572 919.147 40.8964 923.889 Q35.8357 928.631 27.242 928.631 Q18.521 928.631 13.5239 923.857 Q8.52683 919.051 8.52683 910.712 Q8.52683 908.007 9.09974 905.428 Q9.64083 902.85 10.7548 900.431 Z" fill="#000000" fill-rule="nonzero" fill-opacity="1" /><path clip-path="url(#clip671)" d="M180.475 1231.95 L1963.84 1231.95 L1963.84 1231.95 L1966.8 1226.03 L1969.73 1220.11 L1972.63 1214.18 L1975.5 1208.26 L1978.34 1202.34 L1981.16 1196.41 L1983.95 1190.49 L1986.71 1184.57 L1989.44 1178.64 L1992.15 1172.72 L1994.83 1166.8 L1997.49 1160.87 L2000.12 1154.95 L2002.73 1149.02 L2005.32 1143.1 L2007.88 1137.18 L2010.41 1131.25 L2012.93 1125.33 L2015.42 1119.41 L2017.89 1113.48 L2020.33 1107.56 L2022.75 1101.64 L2025.16 1095.71 L2027.54 1089.79 L2029.9 1083.87 L2032.23 1077.94 L2034.55 1072.02 L2036.85 1066.1 L2039.12 1060.17 L2041.38 1054.25 L2043.62 1048.32 L2045.84 1042.4 L2048.04 1036.48 L2050.22 1030.55 L2052.38 1024.63 L2054.52 1018.71 L2056.65 1012.78 L2058.76 1006.86 L2060.85 1000.94 L2062.92 995.012 L2064.97 989.089 L2067.01 983.165 L2069.04 977.242 L2071.04 971.318 L2073.03 965.395 L2075 959.471 L2076.96 953.548 L2078.9 947.624 L2080.82 941.701 L2082.73 935.777 L2084.63 929.853 L2086.51 923.93 L2088.37 918.006 L2090.22 912.083 L2092.06 906.159 L2093.88 900.236 L2095.69 894.312 L2097.48 888.389 L2099.26 882.465 L2101.03 876.541 L2102.78 870.618 L2104.52 864.694 L2106.24 858.771 L2107.96 852.847 L2109.66 846.924 L2111.34 841 L2113.02 835.077 L2114.68 829.153 L2116.33 823.229 L2117.96 817.306 L2119.59 811.382 L2121.2 805.459 L2122.8 799.535 L2124.39 793.612 L2125.97 787.688 L2127.54 781.765 L2129.09 775.841 L2130.64 769.917 L2132.17 763.994 L2133.69 758.07 L2135.2 752.147 L2136.7 746.223 L2138.19 740.3 L2139.67 734.376 L2141.14 728.453 L2142.6 722.529 L2144.05 716.606 L2145.48 710.682 L2146.91 704.758 L2148.33 698.835 L2149.74 692.911 L2151.14 686.988 L2152.53 681.064 L2153.91 675.141 L2155.28 669.217 L2156.64 663.294 L2157.99 657.37 L2159.33 651.446 L2160.67 645.523 L2161.99 639.599 L2163.31 633.676 L2164.62 627.752 L2165.92 621.829 L2167.21 615.905 L2168.49 609.982 L2169.77 604.058 L2171.03 598.134 L2172.29 592.211 L2173.54 586.287 L2174.78 580.364 L2176.01 574.44 L2177.24 568.517 L2178.46 562.593 L2179.67 556.67 L2180.87 550.746 L2182.06 544.823 L2183.25 538.899 L2184.43 532.975 L2185.6 527.052 L2186.76 521.128 L2187.92 515.205 L2189.07 509.281 L2190.22 503.358 L2191.35 497.434 L2192.48 491.511 L2193.6 485.587 L2194.72 479.663 L2195.83 473.74 L2196.93 467.816 L2198.03 461.893 L2199.11 455.969 L2200.2 450.046 L2201.27 444.122 L2202.34 438.199 L2203.4 432.275 L2204.46 426.351 L2205.51 420.428 L2206.55 414.504 L2207.59 408.581 L2208.62 402.657 L2209.65 396.734 L2210.67 390.81 L2211.68 384.887 L2212.69 378.963 L2213.69 373.039 L2214.69 367.116 L2215.68 361.192 L2216.66 355.269 L2217.64 349.345 L2218.61 343.422 L2219.58 337.498 L2220.54 331.575 L2221.5 325.651 L2222.45 319.728 L2223.4 313.804 L2224.34 307.88 L2225.27 301.957 L2226.2 296.033 L2227.13 290.11 L2228.05 284.186 L2228.96 278.263 L2229.87 272.339 L2230.78 266.416 L2231.68 260.492 L2232.57 254.568 L2233.46 248.645 L2234.35 242.721 L2235.23 236.798 L2236.1 230.874 L2236.97 224.951 L2237.84 219.027 L2238.7 213.104 L2239.56 207.18 L2240.41 201.256 L2241.26 195.333 L2242.1 189.409 L2242.94 183.486 L2243.77 177.562 L2244.6 171.639 L2245.43 165.715 L2246.25 159.792 L2247.07 153.868 L2247.88 147.944 L2248.69 142.021 L2249.49 136.097 L2250.29 130.174 L2251.09 124.25 L2251.88 118.327 L2252.67 112.403 L2253.45 106.48 L2254.23 100.556 L2255.01 94.6325 L2255.78 88.709 L2256.55 82.7854 L2257.31 76.8619 L2258.07 70.9383 L2258.83 65.0148 L2259.58 59.0912 L2260.33 53.1676 L2261.07 47.2441 L180.475 47.2441 L180.475 1231.95  Z" fill="#ff0000" fill-rule="evenodd" fill-opacity="0.35"/>
<polyline clip-path="url(#clip671)" style="stroke:#000000; stroke-linecap:round; stroke-linejoin:round; stroke-width:4; stroke-opacity:0; fill:none" points="180.475,1231.95 1963.84,1231.95 1966.8,1226.03 1969.73,1220.11 1972.63,1214.18 1975.5,1208.26 1978.34,1202.34 1981.16,1196.41 1983.95,1190.49 1986.71,1184.57 1989.44,1178.64 1992.15,1172.72 1994.83,1166.8 1997.49,1160.87 2000.12,1154.95 2002.73,1149.02 2005.32,1143.1 2007.88,1137.18 2010.41,1131.25 2012.93,1125.33 2015.42,1119.41 2017.89,1113.48 2020.33,1107.56 2022.75,1101.64 2025.16,1095.71 2027.54,1089.79 2029.9,1083.87 2032.23,1077.94 2034.55,1072.02 2036.85,1066.1 2039.12,1060.17 2041.38,1054.25 2043.62,1048.32 2045.84,1042.4 2048.04,1036.48 2050.22,1030.55 2052.38,1024.63 2054.52,1018.71 2056.65,1012.78 2058.76,1006.86 2060.85,1000.94 2062.92,995.012 2064.97,989.089 2067.01,983.165 2069.04,977.242 2071.04,971.318 2073.03,965.395 2075,959.471 2076.96,953.548 2078.9,947.624 2080.82,941.701 2082.73,935.777 2084.63,929.853 2086.51,923.93 2088.37,918.006 2090.22,912.083 2092.06,906.159 2093.88,900.236 2095.69,894.312 2097.48,888.389 2099.26,882.465 2101.03,876.541 2102.78,870.618 2104.52,864.694 2106.24,858.771 2107.96,852.847 2109.66,846.924 2111.34,841 2113.02,835.077 2114.68,829.153 2116.33,823.229 2117.96,817.306 2119.59,811.382 2121.2,805.459 2122.8,799.535 2124.39,793.612 2125.97,787.688 2127.54,781.765 2129.09,775.841 2130.64,769.917 2132.17,763.994 2133.69,758.07 2135.2,752.147 2136.7,746.223 2138.19,740.3 2139.67,734.376 2141.14,728.453 2142.6,722.529 2144.05,716.606 2145.48,710.682 2146.91,704.758 2148.33,698.835 2149.74,692.911 2151.14,686.988 2152.53,681.064 2153.91,675.141 2155.28,669.217 2156.64,663.294 2157.99,657.37 2159.33,651.446 2160.67,645.523 2161.99,639.599 2163.31,633.676 2164.62,627.752 2165.92,621.829 2167.21,615.905 2168.49,609.982 2169.77,604.058 2171.03,598.134 2172.29,592.211 2173.54,586.287 2174.78,580.364 2176.01,574.44 2177.24,568.517 2178.46,562.593 2179.67,556.67 2180.87,550.746 2182.06,544.823 2183.25,538.899 2184.43,532.975 2185.6,527.052 2186.76,521.128 2187.92,515.205 2189.07,509.281 2190.22,503.358 2191.35,497.434 2192.48,491.511 2193.6,485.587 2194.72,479.663 2195.83,473.74 2196.93,467.816 2198.03,461.893 2199.11,455.969 2200.2,450.046 2201.27,444.122 2202.34,438.199 2203.4,432.275 2204.46,426.351 2205.51,420.428 2206.55,414.504 2207.59,408.581 2208.62,402.657 2209.65,396.734 2210.67,390.81 2211.68,384.887 2212.69,378.963 2213.69,373.039 2214.69,367.116 2215.68,361.192 2216.66,355.269 2217.64,349.345 2218.61,343.422 2219.58,337.498 2220.54,331.575 2221.5,325.651 2222.45,319.728 2223.4,313.804 2224.34,307.88 2225.27,301.957 2226.2,296.033 2227.13,290.11 2228.05,284.186 2228.96,278.263 2229.87,272.339 2230.78,266.416 2231.68,260.492 2232.57,254.568 2233.46,248.645 2234.35,242.721 2235.23,236.798 2236.1,230.874 2236.97,224.951 2237.84,219.027 2238.7,213.104 2239.56,207.18 2240.41,201.256 2241.26,195.333 2242.1,189.409 2242.94,183.486 2243.77,177.562 2244.6,171.639 2245.43,165.715 2246.25,159.792 2247.07,153.868 2247.88,147.944 2248.69,142.021 2249.49,136.097 2250.29,130.174 2251.09,124.25 2251.88,118.327 2252.67,112.403 2253.45,106.48 2254.23,100.556 2255.01,94.6325 2255.78,88.709 2256.55,82.7854 2257.31,76.8619 2258.07,70.9383 2258.83,65.0148 2259.58,59.0912 2260.33,53.1676 2261.07,47.2441 180.475,47.2441 180.475,1231.95 "/>
<path clip-path="url(#clip671)" d="M180.475 1231.95 L1963.84 1231.95 L1963.84 1231.95 L1966.8 1226.03 L1969.73 1220.11 L1972.63 1214.18 L1975.5 1208.26 L1978.34 1202.34 L1981.16 1196.41 L1983.95 1190.49 L1986.71 1184.57 L1989.44 1178.64 L1992.15 1172.72 L1994.83 1166.8 L1997.49 1160.87 L2000.12 1154.95 L2002.73 1149.02 L2005.32 1143.1 L2007.88 1137.18 L2010.41 1131.25 L2012.93 1125.33 L2015.42 1119.41 L2017.89 1113.48 L2020.33 1107.56 L2022.75 1101.64 L2025.16 1095.71 L2027.54 1089.79 L2029.9 1083.87 L2032.23 1077.94 L2034.55 1072.02 L2036.85 1066.1 L2039.12 1060.17 L2041.38 1054.25 L2043.62 1048.32 L2045.84 1042.4 L2048.04 1036.48 L2050.22 1030.55 L2052.38 1024.63 L2054.52 1018.71 L2056.65 1012.78 L2058.76 1006.86 L2060.85 1000.94 L2062.92 995.012 L2064.97 989.089 L2067.01 983.165 L2069.04 977.242 L2071.04 971.318 L2073.03 965.395 L2075 959.471 L2076.96 953.548 L2078.9 947.624 L2080.82 941.701 L2082.73 935.777 L2084.63 929.853 L2086.51 923.93 L2088.37 918.006 L2090.22 912.083 L2092.06 906.159 L2093.88 900.236 L2095.69 894.312 L2097.48 888.389 L2099.26 882.465 L2101.03 876.541 L2102.78 870.618 L2104.52 864.694 L2106.24 858.771 L2107.96 852.847 L2109.66 846.924 L2111.34 841 L2113.02 835.077 L2114.68 829.153 L2116.33 823.229 L2117.96 817.306 L2119.59 811.382 L2121.2 805.459 L2122.8 799.535 L2124.39 793.612 L2125.97 787.688 L2127.54 781.765 L2129.09 775.841 L2130.64 769.917 L2132.17 763.994 L2133.69 758.07 L2135.2 752.147 L2136.7 746.223 L2138.19 740.3 L2139.67 734.376 L2141.14 728.453 L2142.6 722.529 L2144.05 716.606 L2145.48 710.682 L2146.91 704.758 L2148.33 698.835 L2149.74 692.911 L2151.14 686.988 L2152.53 681.064 L2153.91 675.141 L2155.28 669.217 L2156.64 663.294 L2157.99 657.37 L2159.33 651.446 L2160.67 645.523 L2161.99 639.599 L2163.31 633.676 L2164.62 627.752 L2165.92 621.829 L2167.21 615.905 L2168.49 609.982 L2169.77 604.058 L2171.03 598.134 L2172.29 592.211 L2173.54 586.287 L2174.78 580.364 L2176.01 574.44 L2177.24 568.517 L2178.46 562.593 L2179.67 556.67 L2180.87 550.746 L2182.06 544.823 L2183.25 538.899 L2184.43 532.975 L2185.6 527.052 L2186.76 521.128 L2187.92 515.205 L2189.07 509.281 L2190.22 503.358 L2191.35 497.434 L2192.48 491.511 L2193.6 485.587 L2194.72 479.663 L2195.83 473.74 L2196.93 467.816 L2198.03 461.893 L2199.11 455.969 L2200.2 450.046 L2201.27 444.122 L2202.34 438.199 L2203.4 432.275 L2204.46 426.351 L2205.51 420.428 L2206.55 414.504 L2207.59 408.581 L2208.62 402.657 L2209.65 396.734 L2210.67 390.81 L2211.68 384.887 L2212.69 378.963 L2213.69 373.039 L2214.69 367.116 L2215.68 361.192 L2216.66 355.269 L2217.64 349.345 L2218.61 343.422 L2219.58 337.498 L2220.54 331.575 L2221.5 325.651 L2222.45 319.728 L2223.4 313.804 L2224.34 307.88 L2225.27 301.957 L2226.2 296.033 L2227.13 290.11 L2228.05 284.186 L2228.96 278.263 L2229.87 272.339 L2230.78 266.416 L2231.68 260.492 L2232.57 254.568 L2233.46 248.645 L2234.35 242.721 L2235.23 236.798 L2236.1 230.874 L2236.97 224.951 L2237.84 219.027 L2238.7 213.104 L2239.56 207.18 L2240.41 201.256 L2241.26 195.333 L2242.1 189.409 L2242.94 183.486 L2243.77 177.562 L2244.6 171.639 L2245.43 165.715 L2246.25 159.792 L2247.07 153.868 L2247.88 147.944 L2248.69 142.021 L2249.49 136.097 L2250.29 130.174 L2251.09 124.25 L2251.88 118.327 L2252.67 112.403 L2253.45 106.48 L2254.23 100.556 L2255.01 94.6325 L2255.78 88.709 L2256.55 82.7854 L2257.31 76.8619 L2258.07 70.9383 L2258.83 65.0148 L2259.58 59.0912 L2260.33 53.1676 L2261.07 47.2441 L3152.76 47.2441 L3152.76 1824.31 L180.475 1824.31 L180.475 1231.95  Z" fill="#0000ff" fill-rule="evenodd" fill-opacity="0.35"/>
<polyline clip-path="url(#clip671)" style="stroke:#000000; stroke-linecap:round; stroke-linejoin:round; stroke-width:4; stroke-opacity:0; fill:none" points="180.475,1231.95 1963.84,1231.95 1966.8,1226.03 1969.73,1220.11 1972.63,1214.18 1975.5,1208.26 1978.34,1202.34 1981.16,1196.41 1983.95,1190.49 1986.71,1184.57 1989.44,1178.64 1992.15,1172.72 1994.83,1166.8 1997.49,1160.87 2000.12,1154.95 2002.73,1149.02 2005.32,1143.1 2007.88,1137.18 2010.41,1131.25 2012.93,1125.33 2015.42,1119.41 2017.89,1113.48 2020.33,1107.56 2022.75,1101.64 2025.16,1095.71 2027.54,1089.79 2029.9,1083.87 2032.23,1077.94 2034.55,1072.02 2036.85,1066.1 2039.12,1060.17 2041.38,1054.25 2043.62,1048.32 2045.84,1042.4 2048.04,1036.48 2050.22,1030.55 2052.38,1024.63 2054.52,1018.71 2056.65,1012.78 2058.76,1006.86 2060.85,1000.94 2062.92,995.012 2064.97,989.089 2067.01,983.165 2069.04,977.242 2071.04,971.318 2073.03,965.395 2075,959.471 2076.96,953.548 2078.9,947.624 2080.82,941.701 2082.73,935.777 2084.63,929.853 2086.51,923.93 2088.37,918.006 2090.22,912.083 2092.06,906.159 2093.88,900.236 2095.69,894.312 2097.48,888.389 2099.26,882.465 2101.03,876.541 2102.78,870.618 2104.52,864.694 2106.24,858.771 2107.96,852.847 2109.66,846.924 2111.34,841 2113.02,835.077 2114.68,829.153 2116.33,823.229 2117.96,817.306 2119.59,811.382 2121.2,805.459 2122.8,799.535 2124.39,793.612 2125.97,787.688 2127.54,781.765 2129.09,775.841 2130.64,769.917 2132.17,763.994 2133.69,758.07 2135.2,752.147 2136.7,746.223 2138.19,740.3 2139.67,734.376 2141.14,728.453 2142.6,722.529 2144.05,716.606 2145.48,710.682 2146.91,704.758 2148.33,698.835 2149.74,692.911 2151.14,686.988 2152.53,681.064 2153.91,675.141 2155.28,669.217 2156.64,663.294 2157.99,657.37 2159.33,651.446 2160.67,645.523 2161.99,639.599 2163.31,633.676 2164.62,627.752 2165.92,621.829 2167.21,615.905 2168.49,609.982 2169.77,604.058 2171.03,598.134 2172.29,592.211 2173.54,586.287 2174.78,580.364 2176.01,574.44 2177.24,568.517 2178.46,562.593 2179.67,556.67 2180.87,550.746 2182.06,544.823 2183.25,538.899 2184.43,532.975 2185.6,527.052 2186.76,521.128 2187.92,515.205 2189.07,509.281 2190.22,503.358 2191.35,497.434 2192.48,491.511 2193.6,485.587 2194.72,479.663 2195.83,473.74 2196.93,467.816 2198.03,461.893 2199.11,455.969 2200.2,450.046 2201.27,444.122 2202.34,438.199 2203.4,432.275 2204.46,426.351 2205.51,420.428 2206.55,414.504 2207.59,408.581 2208.62,402.657 2209.65,396.734 2210.67,390.81 2211.68,384.887 2212.69,378.963 2213.69,373.039 2214.69,367.116 2215.68,361.192 2216.66,355.269 2217.64,349.345 2218.61,343.422 2219.58,337.498 2220.54,331.575 2221.5,325.651 2222.45,319.728 2223.4,313.804 2224.34,307.88 2225.27,301.957 2226.2,296.033 2227.13,290.11 2228.05,284.186 2228.96,278.263 2229.87,272.339 2230.78,266.416 2231.68,260.492 2232.57,254.568 2233.46,248.645 2234.35,242.721 2235.23,236.798 2236.1,230.874 2236.97,224.951 2237.84,219.027 2238.7,213.104 2239.56,207.18 2240.41,201.256 2241.26,195.333 2242.1,189.409 2242.94,183.486 2243.77,177.562 2244.6,171.639 2245.43,165.715 2246.25,159.792 2247.07,153.868 2247.88,147.944 2248.69,142.021 2249.49,136.097 2250.29,130.174 2251.09,124.25 2251.88,118.327 2252.67,112.403 2253.45,106.48 2254.23,100.556 2255.01,94.6325 2255.78,88.709 2256.55,82.7854 2257.31,76.8619 2258.07,70.9383 2258.83,65.0148 2259.58,59.0912 2260.33,53.1676 2261.07,47.2441 3152.76,47.2441 3152.76,1824.31 180.475,1824.31 180.475,1231.95 "/>
<polyline clip-path="url(#clip671)" style="stroke:#008000; stroke-linecap:round; stroke-linejoin:round; stroke-width:12; stroke-opacity:1; fill:none" points="180.475,1231.95 1963.84,1231.95 "/>
<polyline clip-path="url(#clip671)" style="stroke:#ffd700; stroke-linecap:round; stroke-linejoin:round; stroke-width:12; stroke-opacity:1; fill:none" points="1963.84,1231.95 1966.8,1226.03 1969.73,1220.11 1972.63,1214.18 1975.5,1208.26 1978.34,1202.34 1981.16,1196.41 1983.95,1190.49 1986.71,1184.57 1989.44,1178.64 1992.15,1172.72 1994.83,1166.8 1997.49,1160.87 2000.12,1154.95 2002.73,1149.02 2005.32,1143.1 2007.88,1137.18 2010.41,1131.25 2012.93,1125.33 2015.42,1119.41 2017.89,1113.48 2020.33,1107.56 2022.75,1101.64 2025.16,1095.71 2027.54,1089.79 2029.9,1083.87 2032.23,1077.94 2034.55,1072.02 2036.85,1066.1 2039.12,1060.17 2041.38,1054.25 2043.62,1048.32 2045.84,1042.4 2048.04,1036.48 2050.22,1030.55 2052.38,1024.63 2054.52,1018.71 2056.65,1012.78 2058.76,1006.86 2060.85,1000.94 2062.92,995.012 2064.97,989.089 2067.01,983.165 2069.04,977.242 2071.04,971.318 2073.03,965.395 2075,959.471 2076.96,953.548 2078.9,947.624 2080.82,941.701 2082.73,935.777 2084.63,929.853 2086.51,923.93 2088.37,918.006 2090.22,912.083 2092.06,906.159 2093.88,900.236 2095.69,894.312 2097.48,888.389 2099.26,882.465 2101.03,876.541 2102.78,870.618 2104.52,864.694 2106.24,858.771 2107.96,852.847 2109.66,846.924 2111.34,841 2113.02,835.077 2114.68,829.153 2116.33,823.229 2117.96,817.306 2119.59,811.382 2121.2,805.459 2122.8,799.535 2124.39,793.612 2125.97,787.688 2127.54,781.765 2129.09,775.841 2130.64,769.917 2132.17,763.994 2133.69,758.07 2135.2,752.147 2136.7,746.223 2138.19,740.3 2139.67,734.376 2141.14,728.453 2142.6,722.529 2144.05,716.606 2145.48,710.682 2146.91,704.758 2148.33,698.835 2149.74,692.911 2151.14,686.988 2152.53,681.064 2153.91,675.141 2155.28,669.217 2156.64,663.294 2157.99,657.37 2159.33,651.446 2160.67,645.523 2161.99,639.599 2163.31,633.676 2164.62,627.752 2165.92,621.829 2167.21,615.905 2168.49,609.982 2169.77,604.058 2171.03,598.134 2172.29,592.211 2173.54,586.287 2174.78,580.364 2176.01,574.44 2177.24,568.517 2178.46,562.593 2179.67,556.67 2180.87,550.746 2182.06,544.823 2183.25,538.899 2184.43,532.975 2185.6,527.052 2186.76,521.128 2187.92,515.205 2189.07,509.281 2190.22,503.358 2191.35,497.434 2192.48,491.511 2193.6,485.587 2194.72,479.663 2195.83,473.74 2196.93,467.816 2198.03,461.893 2199.11,455.969 2200.2,450.046 2201.27,444.122 2202.34,438.199 2203.4,432.275 2204.46,426.351 2205.51,420.428 2206.55,414.504 2207.59,408.581 2208.62,402.657 2209.65,396.734 2210.67,390.81 2211.68,384.887 2212.69,378.963 2213.69,373.039 2214.69,367.116 2215.68,361.192 2216.66,355.269 2217.64,349.345 2218.61,343.422 2219.58,337.498 2220.54,331.575 2221.5,325.651 2222.45,319.728 2223.4,313.804 2224.34,307.88 2225.27,301.957 2226.2,296.033 2227.13,290.11 2228.05,284.186 2228.96,278.263 2229.87,272.339 2230.78,266.416 2231.68,260.492 2232.57,254.568 2233.46,248.645 2234.35,242.721 2235.23,236.798 2236.1,230.874 2236.97,224.951 2237.84,219.027 2238.7,213.104 2239.56,207.18 2240.41,201.256 2241.26,195.333 2242.1,189.409 2242.94,183.486 2243.77,177.562 2244.6,171.639 2245.43,165.715 2246.25,159.792 2247.07,153.868 2247.88,147.944 2248.69,142.021 2249.49,136.097 2250.29,130.174 2251.09,124.25 2251.88,118.327 2252.67,112.403 2253.45,106.48 2254.23,100.556 2255.01,94.6325 2255.78,88.709 2256.55,82.7854 2257.31,76.8619 2258.07,70.9383 2258.83,65.0148 2259.58,59.0912 2260.33,53.1676 2261.07,47.2441 "/>
<path clip-path="url(#clip670)" d="M279.551 365.68 L939.439 365.68 L939.439 106.48 L279.551 106.48  Z" fill="#ffffff" fill-rule="evenodd" fill-opacity="1"/>
<polyline clip-path="url(#clip670)" style="stroke:#000000; stroke-linecap:round; stroke-linejoin:round; stroke-width:4; stroke-opacity:1; fill:none" points="279.551,365.68 939.439,365.68 939.439,106.48 279.551,106.48 279.551,365.68 "/>
<path clip-path="url(#clip670)" d="M312.577 179.056 L510.729 179.056 L510.729 137.584 L312.577 137.584 L312.577 179.056  Z" fill="#ff0000" fill-rule="evenodd" fill-opacity="0.35"/>
<polyline clip-path="url(#clip670)" style="stroke:#000000; stroke-linecap:round; stroke-linejoin:round; stroke-width:4; stroke-opacity:0; fill:none" points="312.577,179.056 510.729,179.056 510.729,137.584 312.577,137.584 312.577,179.056 "/>
<path clip-path="url(#clip670)" d="M543.754 165.368 L543.754 149.674 L548.013 149.674 L548.013 165.206 Q548.013 168.887 549.448 170.739 Q550.884 172.567 553.754 172.567 Q557.203 172.567 559.194 170.368 Q561.208 168.169 561.208 164.373 L561.208 149.674 L565.467 149.674 L565.467 175.6 L561.208 175.6 L561.208 171.618 Q559.657 173.979 557.596 175.137 Q555.559 176.271 552.851 176.271 Q548.384 176.271 546.069 173.493 Q543.754 170.715 543.754 165.368 M554.471 149.049 L554.471 149.049 Z" fill="#000000" fill-rule="nonzero" fill-opacity="1" /><path clip-path="url(#clip670)" d="M589.865 154.072 L619.541 154.072 L619.541 157.961 L589.865 157.961 L589.865 154.072 M589.865 163.516 L619.541 163.516 L619.541 167.452 L589.865 167.452 L589.865 163.516 Z" fill="#000000" fill-rule="nonzero" fill-opacity="1" /><path clip-path="url(#clip670)" d="M641.948 160.715 L654.425 160.715 L654.425 164.512 L641.948 164.512 L641.948 160.715 Z" fill="#000000" fill-rule="nonzero" fill-opacity="1" /><path clip-path="url(#clip670)" d="M662.619 171.664 L670.258 171.664 L670.258 145.299 L661.948 146.966 L661.948 142.706 L670.212 141.04 L674.888 141.04 L674.888 171.664 L682.526 171.664 L682.526 175.6 L662.619 175.6 L662.619 171.664 Z" fill="#000000" fill-rule="nonzero" fill-opacity="1" /><path clip-path="url(#clip670)" d="M312.577 230.896 L510.729 230.896 L510.729 189.424 L312.577 189.424 L312.577 230.896  Z" fill="#0000ff" fill-rule="evenodd" fill-opacity="0.35"/>
<polyline clip-path="url(#clip670)" style="stroke:#000000; stroke-linecap:round; stroke-linejoin:round; stroke-width:4; stroke-opacity:0; fill:none" points="312.577,230.896 510.729,230.896 510.729,189.424 312.577,189.424 312.577,230.896 "/>
<path clip-path="url(#clip670)" d="M543.754 217.208 L543.754 201.514 L548.013 201.514 L548.013 217.046 Q548.013 220.727 549.448 222.579 Q550.884 224.407 553.754 224.407 Q557.203 224.407 559.194 222.208 Q561.208 220.009 561.208 216.213 L561.208 201.514 L565.467 201.514 L565.467 227.44 L561.208 227.44 L561.208 223.458 Q559.657 225.819 557.596 226.977 Q555.559 228.111 552.851 228.111 Q548.384 228.111 546.069 225.333 Q543.754 222.555 543.754 217.208 M554.471 200.889 L554.471 200.889 Z" fill="#000000" fill-rule="nonzero" fill-opacity="1" /><path clip-path="url(#clip670)" d="M589.865 205.912 L619.541 205.912 L619.541 209.801 L589.865 209.801 L589.865 205.912 M589.865 215.356 L619.541 215.356 L619.541 219.292 L589.865 219.292 L589.865 215.356 Z" fill="#000000" fill-rule="nonzero" fill-opacity="1" /><path clip-path="url(#clip670)" d="M661.439 197.718 L661.439 210.611 L674.332 210.611 L674.332 214.546 L661.439 214.546 L661.439 227.44 L657.55 227.44 L657.55 214.546 L644.656 214.546 L644.656 210.611 L657.55 210.611 L657.55 197.718 L661.439 197.718 Z" fill="#000000" fill-rule="nonzero" fill-opacity="1" /><path clip-path="url(#clip670)" d="M685.235 223.504 L692.874 223.504 L692.874 197.139 L684.563 198.806 L684.563 194.546 L692.827 192.88 L697.503 192.88 L697.503 223.504 L705.142 223.504 L705.142 227.44 L685.235 227.44 L685.235 223.504 Z" fill="#000000" fill-rule="nonzero" fill-opacity="1" /><polyline clip-path="url(#clip670)" style="stroke:#008000; stroke-linecap:round; stroke-linejoin:round; stroke-width:12; stroke-opacity:1; fill:none" points="312.577,262 510.729,262 "/>
<path clip-path="url(#clip670)" d="M565.999 245.854 L565.999 250.414 Q563.337 249.141 560.976 248.516 Q558.615 247.891 556.416 247.891 Q552.597 247.891 550.513 249.372 Q548.453 250.854 548.453 253.585 Q548.453 255.877 549.819 257.058 Q551.208 258.215 555.05 258.933 L557.874 259.511 Q563.106 260.507 565.583 263.03 Q568.083 265.53 568.083 269.743 Q568.083 274.766 564.703 277.358 Q561.346 279.951 554.842 279.951 Q552.388 279.951 549.61 279.395 Q546.856 278.84 543.893 277.752 L543.893 272.937 Q546.74 274.534 549.472 275.344 Q552.203 276.155 554.842 276.155 Q558.846 276.155 561.022 274.581 Q563.198 273.007 563.198 270.09 Q563.198 267.544 561.624 266.108 Q560.073 264.673 556.509 263.956 L553.661 263.4 Q548.43 262.358 546.092 260.136 Q543.754 257.914 543.754 253.956 Q543.754 249.372 546.972 246.733 Q550.212 244.095 555.884 244.095 Q558.314 244.095 560.837 244.534 Q563.36 244.974 565.999 245.854 Z" fill="#000000" fill-rule="nonzero" fill-opacity="1" /><path clip-path="url(#clip670)" d="M575.189 253.354 L579.448 253.354 L579.448 279.28 L575.189 279.28 L575.189 253.354 M575.189 243.261 L579.448 243.261 L579.448 248.655 L575.189 248.655 L575.189 243.261 Z" fill="#000000" fill-rule="nonzero" fill-opacity="1" /><path clip-path="url(#clip670)" d="M609.911 263.632 L609.911 279.28 L605.652 279.28 L605.652 263.77 Q605.652 260.09 604.217 258.261 Q602.781 256.433 599.911 256.433 Q596.462 256.433 594.471 258.632 Q592.481 260.831 592.481 264.627 L592.481 279.28 L588.198 279.28 L588.198 253.354 L592.481 253.354 L592.481 257.382 Q594.008 255.044 596.068 253.886 Q598.152 252.729 600.86 252.729 Q605.328 252.729 607.619 255.507 Q609.911 258.261 609.911 263.632 Z" fill="#000000" fill-rule="nonzero" fill-opacity="1" /><path clip-path="url(#clip670)" d="M635.466 266.016 Q635.466 261.386 633.545 258.84 Q631.647 256.294 628.198 256.294 Q624.772 256.294 622.851 258.84 Q620.953 261.386 620.953 266.016 Q620.953 270.622 622.851 273.169 Q624.772 275.715 628.198 275.715 Q631.647 275.715 633.545 273.169 Q635.466 270.622 635.466 266.016 M639.726 276.062 Q639.726 282.682 636.786 285.9 Q633.846 289.141 627.781 289.141 Q625.536 289.141 623.545 288.793 Q621.554 288.469 619.679 287.775 L619.679 283.631 Q621.554 284.65 623.383 285.136 Q625.212 285.622 627.11 285.622 Q631.3 285.622 633.383 283.423 Q635.466 281.247 635.466 276.826 L635.466 274.719 Q634.147 277.011 632.087 278.145 Q630.027 279.28 627.156 279.28 Q622.388 279.28 619.471 275.645 Q616.554 272.011 616.554 266.016 Q616.554 259.997 619.471 256.363 Q622.388 252.729 627.156 252.729 Q630.027 252.729 632.087 253.863 Q634.147 254.997 635.466 257.289 L635.466 253.354 L639.726 253.354 L639.726 276.062 Z" fill="#000000" fill-rule="nonzero" fill-opacity="1" /><path clip-path="url(#clip670)" d="M648.059 269.048 L648.059 253.354 L652.318 253.354 L652.318 268.886 Q652.318 272.567 653.753 274.419 Q655.189 276.247 658.059 276.247 Q661.508 276.247 663.499 274.048 Q665.513 271.849 665.513 268.053 L665.513 253.354 L669.772 253.354 L669.772 279.28 L665.513 279.28 L665.513 275.298 Q663.962 277.659 661.901 278.817 Q659.864 279.951 657.156 279.951 Q652.689 279.951 650.374 277.173 Q648.059 274.395 648.059 269.048 M658.776 252.729 L658.776 252.729 Z" fill="#000000" fill-rule="nonzero" fill-opacity="1" /><path clip-path="url(#clip670)" d="M678.545 243.261 L682.804 243.261 L682.804 279.28 L678.545 279.28 L678.545 243.261 Z" fill="#000000" fill-rule="nonzero" fill-opacity="1" /><path clip-path="url(#clip670)" d="M703.498 266.247 Q698.336 266.247 696.346 267.428 Q694.355 268.608 694.355 271.456 Q694.355 273.724 695.836 275.067 Q697.341 276.386 699.911 276.386 Q703.452 276.386 705.582 273.886 Q707.735 271.363 707.735 267.196 L707.735 266.247 L703.498 266.247 M711.994 264.488 L711.994 279.28 L707.735 279.28 L707.735 275.344 Q706.276 277.706 704.1 278.84 Q701.924 279.951 698.776 279.951 Q694.795 279.951 692.434 277.729 Q690.096 275.483 690.096 271.733 Q690.096 267.358 693.012 265.136 Q695.952 262.914 701.762 262.914 L707.735 262.914 L707.735 262.497 Q707.735 259.558 705.79 257.96 Q703.869 256.34 700.373 256.34 Q698.151 256.34 696.045 256.872 Q693.938 257.405 691.994 258.47 L691.994 254.534 Q694.332 253.632 696.531 253.192 Q698.73 252.729 700.813 252.729 Q706.438 252.729 709.216 255.645 Q711.994 258.562 711.994 264.488 Z" fill="#000000" fill-rule="nonzero" fill-opacity="1" /><path clip-path="url(#clip670)" d="M735.79 257.335 Q735.072 256.919 734.216 256.733 Q733.383 256.525 732.364 256.525 Q728.753 256.525 726.809 258.886 Q724.887 261.224 724.887 265.622 L724.887 279.28 L720.605 279.28 L720.605 253.354 L724.887 253.354 L724.887 257.382 Q726.23 255.02 728.383 253.886 Q730.535 252.729 733.614 252.729 Q734.054 252.729 734.586 252.798 Q735.119 252.845 735.767 252.96 L735.79 257.335 Z" fill="#000000" fill-rule="nonzero" fill-opacity="1" /><path clip-path="url(#clip670)" d="M755.327 243.261 L759.586 243.261 L759.586 279.28 L755.327 279.28 L755.327 243.261 Z" fill="#000000" fill-rule="nonzero" fill-opacity="1" /><path clip-path="url(#clip670)" d="M778.544 256.34 Q775.118 256.34 773.128 259.025 Q771.137 261.687 771.137 266.34 Q771.137 270.993 773.105 273.678 Q775.095 276.34 778.544 276.34 Q781.947 276.34 783.938 273.655 Q785.929 270.969 785.929 266.34 Q785.929 261.733 783.938 259.048 Q781.947 256.34 778.544 256.34 M778.544 252.729 Q784.1 252.729 787.271 256.34 Q790.442 259.951 790.442 266.34 Q790.442 272.706 787.271 276.34 Q784.1 279.951 778.544 279.951 Q772.966 279.951 769.794 276.34 Q766.646 272.706 766.646 266.34 Q766.646 259.951 769.794 256.34 Q772.966 252.729 778.544 252.729 Z" fill="#000000" fill-rule="nonzero" fill-opacity="1" /><path clip-path="url(#clip670)" d="M816.16 254.349 L816.16 258.331 Q814.354 257.335 812.526 256.849 Q810.72 256.34 808.868 256.34 Q804.725 256.34 802.433 258.979 Q800.141 261.595 800.141 266.34 Q800.141 271.085 802.433 273.724 Q804.725 276.34 808.868 276.34 Q810.72 276.34 812.526 275.854 Q814.354 275.344 816.16 274.349 L816.16 278.284 Q814.378 279.118 812.456 279.534 Q810.558 279.951 808.405 279.951 Q802.549 279.951 799.1 276.27 Q795.651 272.59 795.651 266.34 Q795.651 259.997 799.123 256.363 Q802.618 252.729 808.683 252.729 Q810.651 252.729 812.526 253.146 Q814.401 253.539 816.16 254.349 Z" fill="#000000" fill-rule="nonzero" fill-opacity="1" /><path clip-path="url(#clip670)" d="M823.127 269.048 L823.127 253.354 L827.387 253.354 L827.387 268.886 Q827.387 272.567 828.822 274.419 Q830.257 276.247 833.127 276.247 Q836.576 276.247 838.567 274.048 Q840.581 271.849 840.581 268.053 L840.581 253.354 L844.84 253.354 L844.84 279.28 L840.581 279.28 L840.581 275.298 Q839.03 277.659 836.97 278.817 Q834.933 279.951 832.225 279.951 Q827.757 279.951 825.442 277.173 Q823.127 274.395 823.127 269.048 M833.845 252.729 L833.845 252.729 Z" fill="#000000" fill-rule="nonzero" fill-opacity="1" /><path clip-path="url(#clip670)" d="M870.141 254.118 L870.141 258.145 Q868.336 257.22 866.391 256.757 Q864.447 256.294 862.363 256.294 Q859.192 256.294 857.595 257.266 Q856.021 258.238 856.021 260.182 Q856.021 261.664 857.155 262.52 Q858.289 263.354 861.715 264.118 L863.174 264.442 Q867.711 265.414 869.609 267.196 Q871.53 268.956 871.53 272.127 Q871.53 275.738 868.66 277.844 Q865.812 279.951 860.812 279.951 Q858.729 279.951 856.461 279.534 Q854.215 279.141 851.715 278.331 L851.715 273.932 Q854.076 275.159 856.368 275.784 Q858.66 276.386 860.905 276.386 Q863.914 276.386 865.535 275.368 Q867.155 274.326 867.155 272.451 Q867.155 270.715 865.974 269.789 Q864.817 268.863 860.859 268.007 L859.377 267.659 Q855.419 266.826 853.66 265.113 Q851.9 263.377 851.9 260.368 Q851.9 256.71 854.493 254.72 Q857.086 252.729 861.854 252.729 Q864.215 252.729 866.299 253.076 Q868.382 253.423 870.141 254.118 Z" fill="#000000" fill-rule="nonzero" fill-opacity="1" /><polyline clip-path="url(#clip670)" style="stroke:#ffd700; stroke-linecap:round; stroke-linejoin:round; stroke-width:12; stroke-opacity:1; fill:none" points="312.577,313.84 510.729,313.84 "/>
<path clip-path="url(#clip670)" d="M565.999 297.694 L565.999 302.254 Q563.337 300.981 560.976 300.356 Q558.615 299.731 556.416 299.731 Q552.597 299.731 550.513 301.212 Q548.453 302.694 548.453 305.425 Q548.453 307.717 549.819 308.898 Q551.208 310.055 555.05 310.773 L557.874 311.351 Q563.106 312.347 565.583 314.87 Q568.083 317.37 568.083 321.583 Q568.083 326.606 564.703 329.198 Q561.346 331.791 554.842 331.791 Q552.388 331.791 549.61 331.235 Q546.856 330.68 543.893 329.592 L543.893 324.777 Q546.74 326.374 549.472 327.184 Q552.203 327.995 554.842 327.995 Q558.846 327.995 561.022 326.421 Q563.198 324.847 563.198 321.93 Q563.198 319.384 561.624 317.948 Q560.073 316.513 556.509 315.796 L553.661 315.24 Q548.43 314.198 546.092 311.976 Q543.754 309.754 543.754 305.796 Q543.754 301.212 546.972 298.573 Q550.212 295.935 555.884 295.935 Q558.314 295.935 560.837 296.374 Q563.36 296.814 565.999 297.694 Z" fill="#000000" fill-rule="nonzero" fill-opacity="1" /><path clip-path="url(#clip670)" d="M572.712 305.194 L576.971 305.194 L582.295 325.425 L587.596 305.194 L592.619 305.194 L597.943 325.425 L603.244 305.194 L607.504 305.194 L600.721 331.12 L595.698 331.12 L590.119 309.87 L584.518 331.12 L579.495 331.12 L572.712 305.194 Z" fill="#000000" fill-rule="nonzero" fill-opacity="1" /><path clip-path="url(#clip670)" d="M613.962 305.194 L618.221 305.194 L618.221 331.12 L613.962 331.12 L613.962 305.194 M613.962 295.101 L618.221 295.101 L618.221 300.495 L613.962 300.495 L613.962 295.101 Z" fill="#000000" fill-rule="nonzero" fill-opacity="1" /><path clip-path="url(#clip670)" d="M631.346 297.833 L631.346 305.194 L640.119 305.194 L640.119 308.504 L631.346 308.504 L631.346 322.578 Q631.346 325.749 632.203 326.652 Q633.082 327.555 635.744 327.555 L640.119 327.555 L640.119 331.12 L635.744 331.12 Q630.814 331.12 628.939 329.291 Q627.064 327.439 627.064 322.578 L627.064 308.504 L623.939 308.504 L623.939 305.194 L627.064 305.194 L627.064 297.833 L631.346 297.833 Z" fill="#000000" fill-rule="nonzero" fill-opacity="1" /><path clip-path="url(#clip670)" d="M664.378 306.189 L664.378 310.171 Q662.573 309.175 660.744 308.689 Q658.939 308.18 657.087 308.18 Q652.943 308.18 650.652 310.819 Q648.36 313.435 648.36 318.18 Q648.36 322.925 650.652 325.564 Q652.943 328.18 657.087 328.18 Q658.939 328.18 660.744 327.694 Q662.573 327.184 664.378 326.189 L664.378 330.124 Q662.596 330.958 660.675 331.374 Q658.776 331.791 656.624 331.791 Q650.767 331.791 647.318 328.11 Q643.869 324.43 643.869 318.18 Q643.869 311.837 647.341 308.203 Q650.837 304.569 656.902 304.569 Q658.869 304.569 660.744 304.986 Q662.619 305.379 664.378 306.189 Z" fill="#000000" fill-rule="nonzero" fill-opacity="1" /><path clip-path="url(#clip670)" d="M693.336 315.472 L693.336 331.12 L689.077 331.12 L689.077 315.61 Q689.077 311.93 687.642 310.101 Q686.207 308.273 683.337 308.273 Q679.887 308.273 677.897 310.472 Q675.906 312.671 675.906 316.467 L675.906 331.12 L671.624 331.12 L671.624 295.101 L675.906 295.101 L675.906 309.222 Q677.434 306.884 679.494 305.726 Q681.577 304.569 684.286 304.569 Q688.753 304.569 691.045 307.347 Q693.336 310.101 693.336 315.472 Z" fill="#000000" fill-rule="nonzero" fill-opacity="1" /><path clip-path="url(#clip670)" d="M701.832 305.194 L706.091 305.194 L706.091 331.12 L701.832 331.12 L701.832 305.194 M701.832 295.101 L706.091 295.101 L706.091 300.495 L701.832 300.495 L701.832 295.101 Z" fill="#000000" fill-rule="nonzero" fill-opacity="1" /><path clip-path="url(#clip670)" d="M736.554 315.472 L736.554 331.12 L732.295 331.12 L732.295 315.61 Q732.295 311.93 730.859 310.101 Q729.424 308.273 726.554 308.273 Q723.105 308.273 721.114 310.472 Q719.123 312.671 719.123 316.467 L719.123 331.12 L714.841 331.12 L714.841 305.194 L719.123 305.194 L719.123 309.222 Q720.651 306.884 722.711 305.726 Q724.795 304.569 727.503 304.569 Q731.971 304.569 734.262 307.347 Q736.554 310.101 736.554 315.472 Z" fill="#000000" fill-rule="nonzero" fill-opacity="1" /><path clip-path="url(#clip670)" d="M762.109 317.856 Q762.109 313.226 760.188 310.68 Q758.29 308.134 754.841 308.134 Q751.415 308.134 749.494 310.68 Q747.595 313.226 747.595 317.856 Q747.595 322.462 749.494 325.009 Q751.415 327.555 754.841 327.555 Q758.29 327.555 760.188 325.009 Q762.109 322.462 762.109 317.856 M766.369 327.902 Q766.369 334.522 763.429 337.74 Q760.489 340.981 754.424 340.981 Q752.179 340.981 750.188 340.633 Q748.197 340.309 746.322 339.615 L746.322 335.471 Q748.197 336.49 750.026 336.976 Q751.855 337.462 753.753 337.462 Q757.943 337.462 760.026 335.263 Q762.109 333.087 762.109 328.666 L762.109 326.559 Q760.79 328.851 758.73 329.985 Q756.669 331.12 753.799 331.12 Q749.031 331.12 746.114 327.485 Q743.197 323.851 743.197 317.856 Q743.197 311.837 746.114 308.203 Q749.031 304.569 753.799 304.569 Q756.669 304.569 758.73 305.703 Q760.79 306.837 762.109 309.129 L762.109 305.194 L766.369 305.194 L766.369 327.902 Z" fill="#000000" fill-rule="nonzero" fill-opacity="1" /><path clip-path="url(#clip670)" d="M790.211 295.101 L794.47 295.101 L794.47 331.12 L790.211 331.12 L790.211 295.101 Z" fill="#000000" fill-rule="nonzero" fill-opacity="1" /><path clip-path="url(#clip670)" d="M813.428 308.18 Q810.003 308.18 808.012 310.865 Q806.021 313.527 806.021 318.18 Q806.021 322.833 807.989 325.518 Q809.979 328.18 813.428 328.18 Q816.831 328.18 818.822 325.495 Q820.813 322.809 820.813 318.18 Q820.813 313.573 818.822 310.888 Q816.831 308.18 813.428 308.18 M813.428 304.569 Q818.984 304.569 822.155 308.18 Q825.327 311.791 825.327 318.18 Q825.327 324.546 822.155 328.18 Q818.984 331.791 813.428 331.791 Q807.85 331.791 804.678 328.18 Q801.53 324.546 801.53 318.18 Q801.53 311.791 804.678 308.18 Q807.85 304.569 813.428 304.569 Z" fill="#000000" fill-rule="nonzero" fill-opacity="1" /><path clip-path="url(#clip670)" d="M851.044 306.189 L851.044 310.171 Q849.238 309.175 847.41 308.689 Q845.604 308.18 843.752 308.18 Q839.609 308.18 837.317 310.819 Q835.026 313.435 835.026 318.18 Q835.026 322.925 837.317 325.564 Q839.609 328.18 843.752 328.18 Q845.604 328.18 847.41 327.694 Q849.238 327.184 851.044 326.189 L851.044 330.124 Q849.262 330.958 847.34 331.374 Q845.442 331.791 843.289 331.791 Q837.433 331.791 833.984 328.11 Q830.535 324.43 830.535 318.18 Q830.535 311.837 834.007 308.203 Q837.502 304.569 843.567 304.569 Q845.535 304.569 847.41 304.986 Q849.285 305.379 851.044 306.189 Z" fill="#000000" fill-rule="nonzero" fill-opacity="1" /><path clip-path="url(#clip670)" d="M858.012 320.888 L858.012 305.194 L862.271 305.194 L862.271 320.726 Q862.271 324.407 863.706 326.259 Q865.141 328.087 868.011 328.087 Q871.461 328.087 873.451 325.888 Q875.465 323.689 875.465 319.893 L875.465 305.194 L879.724 305.194 L879.724 331.12 L875.465 331.12 L875.465 327.138 Q873.914 329.499 871.854 330.657 Q869.817 331.791 867.109 331.791 Q862.641 331.791 860.326 329.013 Q858.012 326.235 858.012 320.888 M868.729 304.569 L868.729 304.569 Z" fill="#000000" fill-rule="nonzero" fill-opacity="1" /><path clip-path="url(#clip670)" d="M905.025 305.958 L905.025 309.985 Q903.22 309.06 901.275 308.597 Q899.331 308.134 897.247 308.134 Q894.076 308.134 892.479 309.106 Q890.905 310.078 890.905 312.022 Q890.905 313.504 892.039 314.36 Q893.173 315.194 896.599 315.958 L898.058 316.282 Q902.595 317.254 904.493 319.036 Q906.414 320.796 906.414 323.967 Q906.414 327.578 903.544 329.684 Q900.696 331.791 895.697 331.791 Q893.613 331.791 891.345 331.374 Q889.099 330.981 886.599 330.171 L886.599 325.772 Q888.96 326.999 891.252 327.624 Q893.544 328.226 895.789 328.226 Q898.798 328.226 900.419 327.208 Q902.039 326.166 902.039 324.291 Q902.039 322.555 900.859 321.629 Q899.701 320.703 895.743 319.847 L894.261 319.499 Q890.303 318.666 888.544 316.953 Q886.785 315.217 886.785 312.208 Q886.785 308.55 889.377 306.56 Q891.97 304.569 896.738 304.569 Q899.099 304.569 901.183 304.916 Q903.266 305.263 905.025 305.958 Z" fill="#000000" fill-rule="nonzero" fill-opacity="1" /></svg>
